<svg xmlns="http://www.w3.org/2000/svg" xmlns:xlink="http://www.w3.org/1999/xlink" width="1080" zoomAndPan="magnify" viewBox="0 0 810 809.999993" height="1080" preserveAspectRatio="xMidYMid meet" version="1.2"><g id="bdbef2516d"><path style=" stroke:none;fill-rule:nonzero;fill:#ed8f27;fill-opacity:1;" d="M 86.21875 147.042969 L 732.375 147.042969 L 732.375 637.191406 L 86.21875 637.191406 Z M 86.21875 147.042969 "/><path style=" stroke:none;fill-rule:nonzero;fill:#300604;fill-opacity:1;" d="M 732.375 645.820312 L 86.21875 645.820312 L 77.589844 637.191406 L 77.589844 147.042969 L 86.21875 138.414062 L 732.375 138.414062 L 741.003906 147.042969 L 741.003906 637.195312 Z M 94.847656 628.566406 L 723.746094 628.566406 L 723.746094 155.671875 L 94.847656 155.671875 Z M 94.847656 628.566406 "/><path style=" stroke:none;fill-rule:nonzero;fill:#fce3c3;fill-opacity:1;" d="M 130.878906 190.722656 L 691.773438 190.722656 L 691.773438 585.550781 L 130.878906 585.550781 Z M 130.878906 190.722656 "/><path style=" stroke:none;fill-rule:nonzero;fill:#228e9d;fill-opacity:1;" d="M 532.292969 684.765625 L 574.300781 660.375 L 603.730469 691.988281 L 601.324219 551.917969 L 530.40625 547.921875 Z M 532.292969 684.765625 "/><path style=" stroke:none;fill-rule:nonzero;fill:#b12800;fill-opacity:1;" d="M 530.40625 518.640625 C 530.402344 520.085938 530.472656 521.523438 530.613281 522.960938 C 530.753906 524.398438 530.964844 525.828125 531.242188 527.242188 C 531.523438 528.660156 531.875 530.058594 532.292969 531.441406 C 532.710938 532.824219 533.195312 534.183594 533.746094 535.515625 C 534.296875 536.851562 534.914062 538.15625 535.59375 539.429688 C 536.273438 540.703125 537.015625 541.941406 537.816406 543.144531 C 538.617188 544.34375 539.476562 545.503906 540.390625 546.621094 C 541.308594 547.738281 542.277344 548.808594 543.296875 549.828125 C 544.316406 550.851562 545.386719 551.820312 546.5 552.738281 C 547.617188 553.652344 548.777344 554.511719 549.976562 555.316406 C 551.175781 556.117188 552.414062 556.859375 553.6875 557.542969 C 554.960938 558.222656 556.265625 558.839844 557.597656 559.394531 C 558.933594 559.945312 560.289062 560.433594 561.671875 560.851562 C 563.054688 561.269531 564.453125 561.621094 565.871094 561.902344 C 567.285156 562.183594 568.714844 562.398438 570.152344 562.539062 C 571.585938 562.679688 573.027344 562.75 574.472656 562.75 C 575.917969 562.75 577.355469 562.679688 578.792969 562.539062 C 580.230469 562.398438 581.660156 562.183594 583.074219 561.902344 C 584.492188 561.621094 585.890625 561.269531 587.273438 560.851562 C 588.65625 560.433594 590.011719 559.945312 591.347656 559.394531 C 592.679688 558.839844 593.984375 558.222656 595.257812 557.542969 C 596.53125 556.859375 597.769531 556.117188 598.96875 555.316406 C 600.167969 554.511719 601.328125 553.652344 602.445312 552.738281 C 603.558594 551.820312 604.628906 550.851562 605.648438 549.828125 C 606.667969 548.808594 607.636719 547.738281 608.554688 546.621094 C 609.46875 545.503906 610.328125 544.34375 611.128906 543.144531 C 611.929688 541.941406 612.671875 540.703125 613.351562 539.429688 C 614.03125 538.15625 614.648438 536.851562 615.199219 535.515625 C 615.75 534.183594 616.234375 532.824219 616.652344 531.441406 C 617.070312 530.058594 617.421875 528.660156 617.699219 527.242188 C 617.980469 525.828125 618.191406 524.398438 618.332031 522.960938 C 618.472656 521.523438 618.542969 520.085938 618.539062 518.640625 C 618.542969 517.195312 618.472656 515.753906 618.332031 514.316406 C 618.191406 512.878906 617.980469 511.453125 617.699219 510.035156 C 617.421875 508.621094 617.070312 507.21875 616.652344 505.839844 C 616.234375 504.457031 615.75 503.097656 615.199219 501.761719 C 614.648438 500.429688 614.03125 499.125 613.351562 497.851562 C 612.671875 496.574219 611.929688 495.339844 611.128906 494.136719 C 610.328125 492.933594 609.46875 491.777344 608.554688 490.660156 C 607.636719 489.542969 606.667969 488.472656 605.648438 487.453125 C 604.628906 486.429688 603.558594 485.460938 602.445312 484.542969 C 601.328125 483.628906 600.167969 482.769531 598.96875 481.964844 C 597.769531 481.160156 596.53125 480.421875 595.257812 479.738281 C 593.984375 479.058594 592.679688 478.441406 591.347656 477.886719 C 590.011719 477.335938 588.65625 476.847656 587.273438 476.429688 C 585.890625 476.007812 584.492188 475.660156 583.074219 475.375 C 581.660156 475.09375 580.230469 474.882812 578.792969 474.742188 C 577.355469 474.601562 575.917969 474.527344 574.472656 474.527344 C 573.027344 474.527344 571.585938 474.601562 570.152344 474.742188 C 568.714844 474.882812 567.285156 475.09375 565.871094 475.375 C 564.453125 475.660156 563.054688 476.007812 561.671875 476.429688 C 560.289062 476.847656 558.933594 477.335938 557.597656 477.886719 C 556.265625 478.441406 554.960938 479.058594 553.6875 479.738281 C 552.414062 480.421875 551.175781 481.160156 549.976562 481.964844 C 548.777344 482.769531 547.617188 483.628906 546.5 484.542969 C 545.386719 485.460938 544.316406 486.429688 543.296875 487.453125 C 542.277344 488.472656 541.308594 489.542969 540.390625 490.660156 C 539.476562 491.777344 538.617188 492.933594 537.816406 494.136719 C 537.015625 495.339844 536.273438 496.574219 535.59375 497.851562 C 534.914062 499.125 534.296875 500.429688 533.746094 501.761719 C 533.195312 503.097656 532.710938 504.457031 532.292969 505.839844 C 531.875 507.21875 531.523438 508.621094 531.242188 510.035156 C 530.964844 511.453125 530.753906 512.878906 530.613281 514.316406 C 530.472656 515.753906 530.402344 517.195312 530.40625 518.640625 Z M 530.40625 518.640625 "/><path style=" stroke:none;fill-rule:nonzero;fill:#300604;fill-opacity:1;" d="M 90.789062 640.605469 C 90.242188 640.605469 89.699219 640.554688 89.164062 640.449219 C 88.625 640.339844 88.105469 640.183594 87.601562 639.972656 C 87.09375 639.765625 86.613281 639.507812 86.160156 639.203125 C 85.707031 638.902344 85.285156 638.554688 84.898438 638.167969 C 84.511719 637.78125 84.164062 637.363281 83.863281 636.90625 C 83.558594 636.453125 83.300781 635.972656 83.09375 635.464844 C 82.882812 634.960938 82.726562 634.441406 82.617188 633.902344 C 82.511719 633.367188 82.460938 632.824219 82.460938 632.277344 L 82.460938 151.203125 C 82.460938 150.382812 82.578125 149.574219 82.816406 148.789062 C 83.054688 148 83.40625 147.261719 83.863281 146.578125 C 84.320312 145.894531 84.867188 145.289062 85.503906 144.765625 C 86.140625 144.246094 86.839844 143.828125 87.601562 143.511719 C 88.359375 143.195312 89.152344 143 89.972656 142.917969 C 90.789062 142.839844 91.605469 142.878906 92.410156 143.039062 C 93.21875 143.199219 93.988281 143.472656 94.714844 143.863281 C 95.441406 144.25 96.09375 144.734375 96.675781 145.316406 L 135.074219 183.71875 C 135.855469 184.496094 136.460938 185.398438 136.882812 186.417969 C 137.304688 187.4375 137.515625 188.5 137.515625 189.605469 L 137.515625 593.878906 C 137.515625 594.984375 137.304688 596.046875 136.882812 597.066406 C 136.460938 598.085938 135.855469 598.988281 135.074219 599.769531 L 96.675781 638.167969 C 95.894531 638.949219 94.996094 639.550781 93.976562 639.972656 C 92.953125 640.394531 91.890625 640.605469 90.789062 640.605469 Z M 99.117188 171.3125 L 99.117188 612.171875 L 120.859375 590.429688 L 120.859375 193.054688 Z M 724.679688 640.605469 C 723.574219 640.605469 722.515625 640.394531 721.492188 639.972656 C 720.472656 639.550781 719.574219 638.949219 718.792969 638.167969 L 680.390625 599.769531 C 679.609375 598.988281 679.007812 598.085938 678.585938 597.066406 C 678.164062 596.046875 677.953125 594.984375 677.953125 593.878906 L 677.953125 189.605469 C 677.953125 188.5 678.164062 187.4375 678.585938 186.417969 C 679.007812 185.398438 679.613281 184.496094 680.390625 183.714844 L 718.792969 145.316406 C 719.375 144.734375 720.027344 144.25 720.753906 143.859375 C 721.480469 143.472656 722.25 143.195312 723.054688 143.035156 C 723.863281 142.875 724.675781 142.835938 725.496094 142.917969 C 726.316406 142.996094 727.109375 143.195312 727.867188 143.511719 C 728.628906 143.824219 729.328125 144.246094 729.964844 144.765625 C 730.601562 145.289062 731.148438 145.890625 731.605469 146.578125 C 732.0625 147.261719 732.414062 148 732.652344 148.785156 C 732.890625 149.574219 733.007812 150.378906 733.007812 151.203125 L 733.007812 632.277344 C 733.007812 632.824219 732.957031 633.367188 732.851562 633.902344 C 732.742188 634.441406 732.585938 634.960938 732.375 635.464844 C 732.167969 635.972656 731.910156 636.453125 731.605469 636.90625 C 731.304688 637.363281 730.957031 637.78125 730.570312 638.167969 C 730.183594 638.554688 729.765625 638.902344 729.308594 639.207031 C 728.855469 639.507812 728.375 639.765625 727.867188 639.976562 C 727.363281 640.183594 726.84375 640.339844 726.304688 640.449219 C 725.769531 640.554688 725.226562 640.609375 724.679688 640.605469 Z M 694.609375 590.429688 L 716.351562 612.171875 L 716.351562 171.3125 L 694.609375 193.054688 Z M 694.609375 590.429688 "/><path style=" stroke:none;fill-rule:nonzero;fill:#300604;fill-opacity:1;" d="M 686.28125 197.933594 L 129.1875 197.933594 C 128.082031 197.933594 127.019531 197.722656 126 197.296875 C 124.980469 196.875 124.078125 196.273438 123.300781 195.492188 L 84.898438 157.09375 C 84.316406 156.511719 83.832031 155.855469 83.445312 155.128906 C 83.054688 154.402344 82.78125 153.636719 82.621094 152.828125 C 82.460938 152.019531 82.417969 151.207031 82.5 150.386719 C 82.582031 149.566406 82.777344 148.777344 83.09375 148.015625 C 83.410156 147.257812 83.828125 146.558594 84.351562 145.921875 C 84.875 145.285156 85.476562 144.738281 86.160156 144.28125 C 86.847656 143.824219 87.582031 143.476562 88.371094 143.234375 C 89.15625 142.996094 89.964844 142.878906 90.789062 142.875 L 724.679688 142.875 C 725.503906 142.875 726.308594 142.996094 727.097656 143.234375 C 727.886719 143.472656 728.621094 143.824219 729.308594 144.28125 C 729.992188 144.738281 730.59375 145.285156 731.117188 145.921875 C 731.640625 146.558594 732.058594 147.257812 732.375 148.019531 C 732.6875 148.777344 732.886719 149.570312 732.96875 150.390625 C 733.046875 151.207031 733.007812 152.023438 732.847656 152.828125 C 732.6875 153.636719 732.414062 154.40625 732.023438 155.128906 C 731.636719 155.855469 731.152344 156.511719 730.566406 157.09375 L 692.167969 195.492188 C 691.386719 196.273438 690.488281 196.875 689.46875 197.296875 C 688.445312 197.722656 687.386719 197.933594 686.28125 197.933594 Z M 132.636719 181.277344 L 682.832031 181.277344 L 704.574219 159.535156 L 110.894531 159.535156 Z M 540.621094 640.605469 L 90.789062 640.605469 C 89.964844 640.605469 89.160156 640.488281 88.371094 640.246094 C 87.582031 640.007812 86.847656 639.660156 86.164062 639.203125 C 85.476562 638.746094 84.875 638.199219 84.351562 637.5625 C 83.828125 636.925781 83.410156 636.226562 83.097656 635.464844 C 82.78125 634.703125 82.582031 633.914062 82.503906 633.09375 C 82.421875 632.277344 82.460938 631.460938 82.621094 630.65625 C 82.78125 629.847656 83.058594 629.078125 83.445312 628.355469 C 83.832031 627.628906 84.316406 626.972656 84.898438 626.390625 L 123.300781 587.992188 C 124.082031 587.210938 124.980469 586.609375 126 586.1875 C 127.023438 585.761719 128.085938 585.550781 129.1875 585.550781 L 540.621094 585.550781 C 545.21875 585.550781 548.949219 589.28125 548.949219 593.878906 L 548.949219 632.28125 C 548.949219 636.878906 545.21875 640.605469 540.621094 640.605469 Z M 110.894531 623.949219 L 532.292969 623.949219 L 532.292969 602.207031 L 132.636719 602.207031 Z M 724.679688 640.605469 L 599.582031 640.605469 C 594.984375 640.605469 591.253906 636.878906 591.253906 632.277344 L 591.253906 593.878906 C 591.253906 589.277344 594.984375 585.550781 599.582031 585.550781 L 686.28125 585.550781 C 687.386719 585.550781 688.449219 585.761719 689.46875 586.183594 C 690.488281 586.609375 691.386719 587.210938 692.167969 587.992188 L 730.570312 626.390625 C 731.152344 626.972656 731.636719 627.625 732.023438 628.351562 C 732.414062 629.078125 732.6875 629.847656 732.847656 630.652344 C 733.007812 631.460938 733.046875 632.277344 732.96875 633.09375 C 732.886719 633.914062 732.6875 634.703125 732.375 635.464844 C 732.058594 636.226562 731.640625 636.925781 731.117188 637.5625 C 730.59375 638.199219 729.992188 638.746094 729.308594 639.203125 C 728.621094 639.660156 727.886719 640.007812 727.097656 640.25 C 726.308594 640.488281 725.503906 640.605469 724.679688 640.605469 Z M 607.910156 623.949219 L 704.574219 623.949219 L 682.832031 602.207031 L 607.910156 602.207031 Z M 607.910156 623.949219 "/><path style=" stroke:none;fill-rule:nonzero;fill:#300604;fill-opacity:1;" d="M 686.28125 602.207031 L 599.582031 602.207031 C 594.984375 602.207031 591.253906 598.480469 591.253906 593.878906 L 591.253906 551.039062 C 591.253906 549.855469 591.492188 548.726562 591.976562 547.644531 C 592.457031 546.566406 593.136719 545.628906 594.019531 544.839844 C 601.640625 538.003906 606.011719 528.226562 606.011719 518.011719 C 606.011719 498.203125 589.902344 482.085938 570.105469 482.085938 C 550.300781 482.085938 534.183594 498.203125 534.183594 518.011719 C 534.1875 520.542969 534.453125 523.042969 534.980469 525.515625 C 535.507812 527.984375 536.289062 530.375 537.320312 532.683594 C 538.351562 534.992188 539.613281 537.167969 541.105469 539.207031 C 542.597656 541.25 544.285156 543.113281 546.167969 544.800781 C 547.054688 545.589844 547.738281 546.527344 548.222656 547.609375 C 548.707031 548.691406 548.949219 549.824219 548.949219 551.011719 L 548.949219 593.878906 C 548.949219 598.480469 545.21875 602.207031 540.621094 602.207031 L 129.1875 602.207031 C 124.589844 602.207031 120.859375 598.480469 120.859375 593.878906 L 120.859375 189.605469 C 120.859375 185.003906 124.589844 181.277344 129.1875 181.277344 L 686.28125 181.277344 C 690.878906 181.277344 694.609375 185.003906 694.609375 189.605469 L 694.609375 593.878906 C 694.609375 598.480469 690.878906 602.207031 686.28125 602.207031 Z M 607.910156 585.550781 L 677.953125 585.550781 L 677.953125 197.933594 L 137.515625 197.933594 L 137.515625 585.550781 L 532.292969 585.550781 L 532.292969 554.550781 C 529.945312 552.121094 527.855469 549.488281 526.015625 546.660156 C 524.179688 543.828125 522.628906 540.84375 521.363281 537.714844 C 520.097656 534.585938 519.140625 531.363281 518.496094 528.050781 C 517.851562 524.734375 517.527344 521.390625 517.527344 518.015625 C 517.527344 489.019531 541.113281 465.429688 570.105469 465.429688 C 599.085938 465.429688 622.667969 489.019531 622.667969 518.015625 C 622.667969 531.667969 617.332031 544.78125 607.910156 554.570312 Z M 607.910156 585.550781 "/><path style=" stroke:none;fill-rule:nonzero;fill:#300604;fill-opacity:1;" d="M 277.445312 242.019531 L 530.773438 242.019531 L 530.773438 258.679688 L 277.445312 258.679688 Z M 186.597656 390.960938 L 619.164062 390.960938 L 619.164062 407.617188 L 186.597656 407.617188 Z M 186.597656 428.742188 L 619.164062 428.742188 L 619.164062 445.398438 L 186.597656 445.398438 Z M 186.597656 509.683594 L 299.410156 509.683594 L 299.410156 526.34375 L 186.597656 526.34375 Z M 341.84375 509.683594 L 454.65625 509.683594 L 454.65625 526.34375 L 341.84375 526.34375 Z M 561.230469 569.847656 L 559.644531 569.546875 C 558.484375 569.308594 557.746094 569.144531 557.066406 568.953125 L 561.664062 552.941406 C 561.957031 553.027344 562.28125 553.082031 562.59375 553.148438 L 564.296875 553.476562 Z M 578.5 569.925781 L 576.429688 553.398438 L 581.15625 569.410156 C 580.316406 569.636719 579.40625 569.8125 578.5 569.925781 Z M 578.5 569.925781 "/><path style=" stroke:none;fill-rule:nonzero;fill:#300604;fill-opacity:1;" d="M 599.582031 693.09375 C 598.078125 693.09375 596.679688 692.714844 595.382812 691.957031 L 570.105469 677.210938 L 544.816406 691.960938 C 544.816406 692.324219 544.792969 692.6875 544.746094 693.046875 C 544.699219 693.40625 544.628906 693.761719 544.535156 694.113281 C 544.441406 694.464844 544.324219 694.808594 544.183594 695.144531 C 544.046875 695.480469 543.882812 695.804688 543.703125 696.121094 C 543.519531 696.433594 543.320312 696.738281 543.097656 697.023438 C 542.878906 697.3125 542.640625 697.585938 542.382812 697.84375 C 542.125 698.101562 541.851562 698.339844 541.5625 698.5625 C 541.277344 698.785156 540.976562 698.984375 540.660156 699.167969 C 540.34375 699.347656 540.019531 699.511719 539.683594 699.648438 C 539.347656 699.789062 539.003906 699.90625 538.65625 700 C 538.304688 700.09375 537.949219 700.167969 537.585938 700.214844 C 537.226562 700.261719 536.867188 700.285156 536.5 700.289062 C 536.136719 700.289062 535.777344 700.265625 535.414062 700.21875 C 535.054688 700.171875 534.699219 700.101562 534.347656 700.007812 C 533.996094 699.914062 533.652344 699.796875 533.316406 699.660156 C 532.980469 699.519531 532.65625 699.363281 532.339844 699.179688 C 532.023438 699 531.722656 698.796875 531.433594 698.578125 C 531.144531 698.355469 530.871094 698.117188 530.613281 697.863281 C 530.355469 697.605469 530.117188 697.332031 529.894531 697.046875 C 529.671875 696.757812 529.46875 696.457031 529.289062 696.144531 C 529.105469 695.828125 528.945312 695.503906 528.804688 695.167969 C 528.664062 694.832031 528.546875 694.488281 528.449219 694.136719 C 528.355469 693.789062 528.285156 693.433594 528.234375 693.070312 C 528.1875 692.710938 528.160156 692.351562 528.160156 691.984375 C 528.160156 691.621094 528.179688 691.261719 528.226562 690.898438 C 528.273438 690.539062 528.34375 690.183594 528.4375 689.832031 C 528.527344 689.480469 528.644531 689.136719 528.78125 688.800781 C 528.921875 688.464844 529.078125 688.136719 529.261719 687.824219 C 529.441406 687.507812 529.640625 687.203125 529.859375 686.914062 C 530.082031 686.625 530.320312 686.351562 530.574219 686.09375 C 530.832031 685.835938 531.101562 685.597656 531.390625 685.375 C 531.675781 685.152344 531.976562 684.949219 532.292969 684.765625 L 532.292969 551.011719 C 532.292969 550.207031 532.40625 549.417969 532.636719 548.648438 C 532.863281 547.878906 533.195312 547.152344 533.636719 546.480469 C 534.074219 545.804688 534.597656 545.207031 535.210938 544.683594 C 535.820312 544.160156 536.492188 543.734375 537.226562 543.40625 C 537.960938 543.082031 538.730469 542.863281 539.527344 542.757812 C 540.324219 542.652344 541.121094 542.660156 541.914062 542.785156 C 542.707031 542.910156 543.46875 543.144531 544.195312 543.492188 C 544.921875 543.835938 545.585938 544.277344 546.183594 544.816406 C 548.566406 546.957031 551.195312 548.730469 554.074219 550.140625 C 555.515625 550.894531 556.941406 551.496094 558.621094 552.066406 C 559.375 552.328125 560.113281 552.558594 560.859375 552.753906 C 561.121094 552.800781 561.371094 552.859375 561.59375 552.921875 C 561.949219 553.019531 562.351562 553.097656 562.753906 553.183594 L 564.296875 553.476562 C 568.089844 554.085938 571.992188 554.117188 576.125 553.441406 L 578.855469 552.863281 C 579.652344 552.671875 580.519531 552.457031 581.335938 552.152344 C 586.171875 550.535156 590.351562 548.097656 594.050781 544.8125 C 596.503906 542.640625 600.015625 542.097656 602.992188 543.445312 C 603.722656 543.773438 604.394531 544.199219 605.003906 544.722656 C 605.613281 545.242188 606.136719 545.84375 606.570312 546.515625 C 607.007812 547.191406 607.339844 547.910156 607.566406 548.679688 C 607.792969 549.453125 607.910156 550.238281 607.910156 551.039062 L 607.910156 684.765625 C 607.910156 685.5 607.8125 686.21875 607.625 686.925781 C 607.433594 687.636719 607.15625 688.304688 606.789062 688.941406 C 606.421875 689.574219 605.976562 690.148438 605.460938 690.667969 C 604.941406 691.183594 604.363281 691.625 603.726562 691.988281 C 602.445312 692.726562 601.0625 693.09375 599.582031 693.09375 Z M 548.949219 566.160156 L 548.949219 670.265625 L 565.910156 660.371094 C 566.546875 660 567.222656 659.71875 567.933594 659.527344 C 568.644531 659.332031 569.367188 659.238281 570.105469 659.238281 C 570.84375 659.238281 571.566406 659.335938 572.28125 659.527344 C 572.992188 659.71875 573.664062 660.003906 574.300781 660.375 L 591.253906 670.265625 L 591.253906 566.171875 C 589.824219 566.796875 588.371094 567.355469 586.894531 567.847656 C 585.738281 568.285156 584.210938 568.710938 582.675781 569.074219 L 579 569.847656 C 572.714844 570.875 567.375 570.851562 561.429688 569.882812 L 559.648438 569.546875 C 558.945312 569.40625 558.246094 569.25 557.550781 569.078125 C 557.382812 569.046875 557.214844 569.011719 557.050781 568.96875 C 555.75 568.640625 554.46875 568.257812 553.207031 567.820312 C 551.761719 567.328125 550.34375 566.777344 548.949219 566.160156 Z M 548.949219 566.160156 "/><path style=" stroke:none;fill-rule:nonzero;fill:#300604;fill-opacity:1;" d="M 570.105469 570.609375 C 567.3125 570.609375 564.390625 570.363281 561.429688 569.882812 L 559.648438 569.546875 C 558.933594 569.40625 558.226562 569.25 557.519531 569.074219 C 557.296875 569.03125 557.078125 568.980469 556.859375 568.921875 C 555.875 568.644531 554.894531 568.351562 553.921875 568.046875 C 553.84375 568.019531 553.308594 567.851562 553.234375 567.828125 C 550.964844 567.054688 548.765625 566.125 546.628906 565.042969 C 542.722656 563.082031 539.113281 560.671875 535.8125 557.808594 C 535.554688 557.628906 535.308594 557.433594 535.074219 557.222656 C 532.316406 554.753906 529.84375 552.027344 527.660156 549.039062 C 525.476562 546.050781 523.628906 542.867188 522.117188 539.488281 C 520.605469 536.109375 519.464844 532.613281 518.691406 528.992188 C 517.917969 525.375 517.527344 521.714844 517.527344 518.011719 C 517.527344 489.015625 541.113281 465.429688 570.105469 465.429688 C 599.089844 465.429688 622.667969 489.015625 622.667969 518.011719 C 622.667969 532.949219 616.28125 547.246094 605.144531 557.238281 C 604.84375 557.503906 604.53125 557.746094 604.207031 557.964844 C 599.054688 562.367188 593.253906 565.6875 586.9375 567.832031 C 585.492188 568.308594 584.105469 568.730469 582.671875 569.074219 L 580.824219 569.488281 C 580.308594 569.632812 579.402344 569.808594 578.5 569.921875 C 575.71875 570.378906 572.921875 570.605469 570.105469 570.609375 Z M 560.96875 552.773438 C 561.191406 552.816406 561.402344 552.867188 561.597656 552.921875 C 561.957031 553.027344 562.28125 553.082031 562.597656 553.148438 L 564.261719 553.46875 C 568.125 554.09375 571.992188 554.117188 576.125 553.441406 C 576.234375 553.414062 577.035156 553.269531 577.148438 553.246094 L 578.855469 552.863281 C 579.757812 552.648438 580.699219 552.355469 581.632812 552.042969 C 586.136719 550.511719 590.328125 548.046875 594.027344 544.738281 C 594.265625 544.527344 594.511719 544.332031 594.765625 544.152344 C 601.921875 537.359375 606.011719 527.886719 606.011719 518.011719 C 606.011719 498.203125 589.902344 482.085938 570.105469 482.085938 C 550.296875 482.085938 534.183594 498.203125 534.183594 518.011719 C 534.183594 520.472656 534.433594 522.902344 534.933594 525.308594 C 535.433594 527.714844 536.171875 530.046875 537.148438 532.300781 C 538.125 534.554688 539.324219 536.6875 540.738281 538.699219 C 542.152344 540.707031 543.753906 542.554688 545.546875 544.234375 C 545.769531 544.398438 545.988281 544.578125 546.199219 544.761719 C 548.597656 546.925781 551.242188 548.726562 554.132812 550.175781 C 555.582031 550.910156 557.082031 551.542969 558.621094 552.066406 C 559.523438 552.34375 560.253906 552.570312 560.96875 552.773438 Z M 560.96875 552.773438 "/><path style=" stroke:none;fill-rule:nonzero;fill:#b12800;fill-opacity:1;" d="M 186.597656 288.933594 L 186.597656 370.417969 L 254.351562 330.320312 Z M 270.101562 288.933594 L 311.15625 288.933594 L 311.15625 370.417969 L 270.101562 370.417969 Z M 270.101562 288.933594 "/><path style=" stroke:none;fill-rule:nonzero;fill:#b12800;fill-opacity:1;" d="M 332.769531 329.898438 C 332.769531 331.242188 332.835938 332.578125 332.964844 333.914062 C 333.097656 335.25 333.292969 336.574219 333.554688 337.890625 C 333.816406 339.207031 334.144531 340.507812 334.53125 341.792969 C 334.921875 343.074219 335.375 344.335938 335.886719 345.578125 C 336.402344 346.816406 336.972656 348.027344 337.605469 349.210938 C 338.238281 350.394531 338.925781 351.542969 339.671875 352.660156 C 340.417969 353.773438 341.214844 354.851562 342.066406 355.886719 C 342.917969 356.925781 343.820312 357.917969 344.765625 358.867188 C 345.714844 359.816406 346.707031 360.714844 347.746094 361.566406 C 348.78125 362.417969 349.859375 363.214844 350.976562 363.960938 C 352.089844 364.707031 353.238281 365.394531 354.421875 366.027344 C 355.605469 366.660156 356.816406 367.234375 358.058594 367.746094 C 359.296875 368.261719 360.558594 368.710938 361.84375 369.101562 C 363.125 369.492188 364.425781 369.816406 365.742188 370.078125 C 367.058594 370.339844 368.382812 370.535156 369.71875 370.667969 C 371.054688 370.800781 372.390625 370.867188 373.734375 370.867188 C 375.074219 370.867188 376.414062 370.800781 377.75 370.667969 C 379.085938 370.535156 380.410156 370.339844 381.726562 370.078125 C 383.042969 369.816406 384.34375 369.492188 385.625 369.101562 C 386.910156 368.710938 388.171875 368.261719 389.410156 367.746094 C 390.652344 367.234375 391.863281 366.660156 393.046875 366.027344 C 394.226562 365.394531 395.378906 364.707031 396.492188 363.960938 C 397.609375 363.214844 398.683594 362.417969 399.722656 361.566406 C 400.757812 360.714844 401.753906 359.816406 402.699219 358.867188 C 403.648438 357.917969 404.550781 356.925781 405.402344 355.886719 C 406.25 354.851562 407.050781 353.773438 407.796875 352.660156 C 408.539062 351.542969 409.230469 350.394531 409.863281 349.210938 C 410.496094 348.027344 411.066406 346.816406 411.582031 345.578125 C 412.09375 344.335938 412.546875 343.074219 412.9375 341.792969 C 413.324219 340.507812 413.652344 339.207031 413.914062 337.890625 C 414.175781 336.574219 414.371094 335.25 414.503906 333.914062 C 414.632812 332.578125 414.699219 331.242188 414.699219 329.898438 C 414.699219 328.558594 414.632812 327.21875 414.503906 325.882812 C 414.371094 324.550781 414.175781 323.222656 413.914062 321.90625 C 413.652344 320.59375 413.324219 319.292969 412.9375 318.007812 C 412.546875 316.722656 412.09375 315.460938 411.582031 314.222656 C 411.066406 312.984375 410.496094 311.773438 409.863281 310.589844 C 409.230469 309.40625 408.539062 308.257812 407.796875 307.140625 C 407.050781 306.023438 406.25 304.949219 405.402344 303.910156 C 404.550781 302.875 403.648438 301.882812 402.699219 300.933594 C 401.753906 299.984375 400.757812 299.085938 399.722656 298.234375 C 398.683594 297.382812 397.609375 296.582031 396.492188 295.839844 C 395.378906 295.09375 394.226562 294.402344 393.046875 293.773438 C 391.863281 293.140625 390.652344 292.566406 389.410156 292.050781 C 388.171875 291.539062 386.910156 291.085938 385.625 290.699219 C 384.34375 290.308594 383.042969 289.984375 381.726562 289.722656 C 380.410156 289.460938 379.085938 289.261719 377.75 289.132812 C 376.414062 289 375.074219 288.933594 373.734375 288.933594 C 372.390625 288.933594 371.054688 289 369.71875 289.132812 C 368.382812 289.261719 367.058594 289.460938 365.742188 289.722656 C 364.425781 289.984375 363.125 290.308594 361.84375 290.699219 C 360.558594 291.085938 359.296875 291.539062 358.058594 292.050781 C 356.816406 292.566406 355.605469 293.140625 354.421875 293.773438 C 353.238281 294.402344 352.089844 295.09375 350.976562 295.839844 C 349.859375 296.582031 348.78125 297.382812 347.746094 298.234375 C 346.707031 299.085938 345.714844 299.984375 344.765625 300.933594 C 343.820312 301.882812 342.917969 302.875 342.066406 303.910156 C 341.214844 304.949219 340.417969 306.023438 339.671875 307.140625 C 338.925781 308.257812 338.238281 309.40625 337.605469 310.589844 C 336.972656 311.773438 336.402344 312.984375 335.886719 314.222656 C 335.375 315.460938 334.921875 316.722656 334.53125 318.007812 C 334.144531 319.292969 333.816406 320.59375 333.554688 321.90625 C 333.292969 323.222656 333.097656 324.550781 332.964844 325.882812 C 332.835938 327.21875 332.769531 328.558594 332.769531 329.898438 Z M 332.769531 329.898438 "/><path style=" stroke:none;fill-rule:nonzero;fill:#b12800;fill-opacity:1;" d="M 431.667969 297.492188 L 504.59375 297.492188 L 504.59375 370.417969 L 431.667969 370.417969 Z M 528.167969 370.417969 L 550.714844 297.492188 L 575.9375 319.339844 L 601.890625 297.492188 L 618.648438 370.417969 Z M 528.167969 370.417969 "/></g></svg>