<svg xmlns="http://www.w3.org/2000/svg" xmlns:xlink="http://www.w3.org/1999/xlink" width="306" zoomAndPan="magnify" viewBox="0 0 229.5 259.500006" height="346" preserveAspectRatio="xMidYMid meet" version="1.0"><path fill="#006c52" d="M 227.953125 76.554688 C 227.953125 72.253906 227.027344 68.453125 225.164062 65.191406 C 223.339844 61.984375 220.605469 59.292969 216.933594 57.167969 C 186.625 39.695312 156.300781 22.273438 126 4.785156 C 117.832031 0.0664062 109.917969 0.238281 101.8125 5.023438 C 89.753906 12.136719 29.359375 46.734375 11.359375 57.160156 C 3.953125 61.449219 0.34375 68.015625 0.34375 76.546875 C 0.332031 111.691406 0.34375 146.828125 0.332031 181.972656 C 0.332031 186.175781 1.214844 189.898438 2.992188 193.117188 C 4.820312 196.417969 7.597656 199.191406 11.351562 201.363281 C 29.347656 211.78125 89.742188 246.375 101.804688 253.492188 C 109.917969 258.285156 117.835938 258.453125 126.003906 253.730469 C 156.304688 236.238281 186.640625 218.820312 216.949219 201.355469 C 220.707031 199.179688 223.476562 196.410156 225.3125 193.105469 C 227.082031 189.898438 227.964844 186.167969 227.964844 181.957031 C 227.964844 181.957031 227.964844 111.703125 227.957031 76.558594 " fill-opacity="1" fill-rule="nonzero"/><path fill="#006c52" d="M 114.492188 128.917969 L 2.996094 193.113281 C 4.820312 196.417969 7.597656 199.1875 11.351562 201.363281 C 29.347656 211.78125 89.742188 246.375 101.804688 253.492188 C 109.917969 258.28125 117.835938 258.453125 126.003906 253.730469 C 156.304688 236.238281 186.640625 218.816406 216.949219 201.351562 C 220.707031 199.179688 223.476562 196.410156 225.3125 193.105469 L 114.496094 128.917969 " fill-opacity="1" fill-rule="nonzero"/><path fill="#006c52" d="M 81.46875 147.933594 C 87.957031 159.261719 100.15625 166.902344 114.148438 166.902344 C 128.226562 166.902344 140.492188 159.164062 146.949219 147.71875 L 114.492188 128.917969 L 81.46875 147.933594 " fill-opacity="1" fill-rule="nonzero"/><path fill="#006c52" d="M 227.953125 76.554688 C 227.953125 72.253906 227.027344 68.453125 225.164062 65.191406 L 114.492188 128.917969 L 225.308594 193.105469 C 227.078125 189.898438 227.960938 186.167969 227.960938 181.953125 C 227.960938 181.953125 227.960938 111.699219 227.953125 76.554688 " fill-opacity="1" fill-rule="nonzero"/><path fill="#006c52" d="M 221.859375 133.503906 L 213.203125 133.503906 L 213.203125 142.160156 L 204.539062 142.160156 L 204.539062 133.503906 L 195.878906 133.503906 L 195.878906 124.847656 L 204.539062 124.847656 L 204.539062 116.191406 L 213.203125 116.191406 L 213.203125 124.847656 L 221.859375 124.847656 L 221.859375 133.503906 " fill-opacity="1" fill-rule="nonzero"/><path fill="#006c52" d="M 190.261719 133.503906 L 181.605469 133.503906 L 181.605469 142.160156 L 172.945312 142.160156 L 172.945312 133.503906 L 164.289062 133.503906 L 164.289062 124.847656 L 172.945312 124.847656 L 172.945312 116.191406 L 181.605469 116.191406 L 181.605469 124.847656 L 190.261719 124.847656 L 190.261719 133.503906 " fill-opacity="1" fill-rule="nonzero"/><path fill="#006c52" d="M 146.949219 147.71875 C 140.492188 159.164062 128.226562 166.902344 114.148438 166.902344 C 100.15625 166.902344 87.957031 159.261719 81.46875 147.933594 C 78.316406 142.429688 76.503906 136.058594 76.503906 129.253906 C 76.503906 108.46875 93.359375 91.617188 114.148438 91.617188 C 128.050781 91.617188 140.179688 99.160156 146.699219 110.375 L 179.601562 91.429688 C 166.523438 68.851562 142.113281 53.667969 114.148438 53.667969 C 72.398438 53.667969 38.554688 87.511719 38.554688 129.253906 C 38.554688 142.953125 42.199219 155.796875 48.566406 166.875 C 61.609375 189.570312 86.09375 204.851562 114.148438 204.851562 C 142.253906 204.851562 166.773438 189.507812 179.796875 166.75 L 146.949219 147.71875 " fill-opacity="1" fill-rule="nonzero"/><path fill="#5c8dbc" d="M 217.949219 82.023438 C 217.949219 78.113281 217.109375 74.65625 215.421875 71.6875 C 213.761719 68.769531 211.28125 66.324219 207.949219 64.390625 C 180.429688 48.5 152.894531 32.65625 125.382812 16.75 C 117.96875 12.460938 110.777344 12.617188 103.417969 16.964844 C 92.46875 23.4375 37.632812 54.902344 21.289062 64.382812 C 14.566406 68.285156 11.292969 74.257812 11.289062 82.019531 C 11.277344 113.980469 11.289062 145.9375 11.277344 177.902344 C 11.28125 181.722656 12.082031 185.109375 13.695312 188.035156 C 15.355469 191.039062 17.875 193.558594 21.285156 195.535156 C 37.625 205.011719 92.460938 236.472656 103.414062 242.945312 C 110.78125 247.304688 117.96875 247.457031 125.386719 243.164062 C 152.898438 227.253906 180.441406 211.410156 207.960938 195.527344 C 211.371094 193.550781 213.886719 191.03125 215.550781 188.027344 C 217.160156 185.109375 217.960938 181.714844 217.960938 177.882812 C 217.960938 177.882812 217.960938 113.988281 217.953125 82.027344 " fill-opacity="1" fill-rule="nonzero"/><path fill="#1a4674" d="M 114.933594 129.648438 L 13.695312 188.03125 C 15.355469 191.039062 17.875 193.558594 21.285156 195.535156 C 37.625 205.011719 92.460938 236.472656 103.414062 242.945312 C 110.78125 247.300781 117.96875 247.457031 125.386719 243.164062 C 152.898438 227.253906 180.441406 211.410156 207.960938 195.527344 C 211.371094 193.550781 213.886719 191.03125 215.550781 188.023438 L 114.9375 129.648438 " fill-opacity="1" fill-rule="nonzero"/><path fill="#1a4674" d="M 84.949219 146.941406 C 90.839844 157.242188 101.914062 164.195312 114.621094 164.195312 C 127.40625 164.195312 138.539062 157.15625 144.402344 146.746094 L 114.933594 129.648438 L 84.949219 146.941406 " fill-opacity="1" fill-rule="nonzero"/><path fill="#1b598e" d="M 217.949219 82.023438 C 217.949219 78.113281 217.109375 74.65625 215.421875 71.6875 L 114.933594 129.648438 L 215.550781 188.023438 C 217.160156 185.109375 217.960938 181.714844 217.960938 177.882812 C 217.960938 177.882812 217.960938 113.988281 217.949219 82.023438 " fill-opacity="1" fill-rule="nonzero"/><path fill="#ffffff" d="M 212.417969 133.816406 L 204.558594 133.816406 L 204.558594 141.691406 L 196.691406 141.691406 L 196.691406 133.816406 L 188.832031 133.816406 L 188.832031 125.945312 L 196.691406 125.945312 L 196.691406 118.070312 L 204.558594 118.070312 L 204.558594 125.945312 L 212.417969 125.945312 L 212.417969 133.816406 " fill-opacity="1" fill-rule="nonzero"/><path fill="#ffffff" d="M 183.726562 133.816406 L 175.867188 133.816406 L 175.867188 141.691406 L 168.007812 141.691406 L 168.007812 133.816406 L 160.148438 133.816406 L 160.148438 125.945312 L 168.007812 125.945312 L 168.007812 118.070312 L 175.867188 118.070312 L 175.867188 125.945312 L 183.726562 125.945312 L 183.726562 133.816406 " fill-opacity="1" fill-rule="nonzero"/><path fill="#ffffff" d="M 144.402344 146.746094 C 138.539062 157.15625 127.40625 164.195312 114.621094 164.195312 C 101.914062 164.195312 90.839844 157.242188 84.949219 146.941406 C 82.089844 141.933594 80.441406 136.144531 80.441406 129.953125 C 80.441406 111.046875 95.746094 95.722656 114.621094 95.722656 C 127.242188 95.722656 138.257812 102.582031 144.175781 112.78125 L 174.046875 95.550781 C 162.175781 75.019531 140.011719 61.207031 114.621094 61.207031 C 76.710938 61.207031 45.984375 91.988281 45.984375 129.953125 C 45.984375 142.414062 49.292969 154.09375 55.074219 164.167969 C 66.917969 184.808594 89.148438 198.710938 114.621094 198.710938 C 140.140625 198.710938 162.402344 184.753906 174.226562 164.054688 L 144.402344 146.746094 " fill-opacity="1" fill-rule="nonzero"/></svg>