<svg xmlns="http://www.w3.org/2000/svg" xmlns:xlink="http://www.w3.org/1999/xlink" width="305" zoomAndPan="magnify" viewBox="0 0 228.75 258.749997" height="345" preserveAspectRatio="xMidYMid meet" version="1.0"><defs><clipPath id="f523e1e58b"><path d="M 11 13 L 218.5 13 L 218.5 246 L 11 246 Z M 11 13 " clip-rule="nonzero"/></clipPath><clipPath id="9df9b2dad8"><path d="M 115 71 L 218.5 71 L 218.5 188 L 115 188 Z M 115 71 " clip-rule="nonzero"/></clipPath></defs><path fill="#ff5400" d="M 227.957031 76.542969 C 227.957031 72.242188 227.03125 68.441406 225.171875 65.175781 C 223.34375 61.96875 220.609375 59.28125 216.941406 57.152344 C 186.632812 39.679688 156.304688 22.257812 126.003906 4.765625 C 117.835938 0.0507812 109.917969 0.222656 101.8125 5.007812 C 89.75 12.121094 29.355469 46.722656 11.355469 57.144531 C 3.949219 61.433594 0.339844 68 0.339844 76.535156 C 0.328125 111.679688 0.339844 146.816406 0.328125 181.964844 C 0.328125 186.167969 1.210938 189.890625 2.988281 193.105469 C 4.816406 196.410156 7.59375 199.183594 11.347656 201.355469 C 29.347656 211.777344 89.742188 246.371094 101.804688 253.484375 C 109.921875 258.277344 117.839844 258.449219 126.007812 253.726562 C 156.308594 236.234375 186.644531 218.8125 216.953125 201.347656 C 220.710938 199.171875 223.480469 196.402344 225.316406 193.097656 C 227.089844 189.890625 227.972656 186.160156 227.972656 181.945312 C 227.972656 181.945312 227.972656 111.691406 227.960938 76.542969 " fill-opacity="1" fill-rule="nonzero"/><path fill="#ff5400" d="M 114.496094 128.90625 L 2.992188 193.105469 C 4.816406 196.410156 7.59375 199.179688 11.347656 201.355469 C 29.347656 211.773438 89.742188 246.367188 101.804688 253.484375 C 109.921875 258.277344 117.839844 258.445312 126.007812 253.726562 C 156.308594 236.234375 186.644531 218.8125 216.953125 201.34375 C 220.710938 199.171875 223.480469 196.402344 225.316406 193.097656 L 114.5 128.90625 " fill-opacity="1" fill-rule="nonzero"/><path fill="#ff5400" d="M 81.46875 147.921875 C 87.957031 159.25 100.15625 166.894531 114.148438 166.894531 C 128.230469 166.894531 140.492188 159.152344 146.953125 147.707031 L 114.496094 128.90625 L 81.46875 147.921875 " fill-opacity="1" fill-rule="nonzero"/><path fill="#ff5400" d="M 227.957031 76.542969 C 227.957031 72.242188 227.03125 68.441406 225.171875 65.175781 L 114.496094 128.90625 L 225.3125 193.097656 C 227.085938 189.890625 227.96875 186.160156 227.96875 181.945312 C 227.96875 181.945312 227.96875 111.691406 227.957031 76.542969 " fill-opacity="1" fill-rule="nonzero"/><path fill="#ff5400" d="M 221.867188 133.492188 L 213.207031 133.492188 L 213.207031 142.152344 L 204.542969 142.152344 L 204.542969 133.492188 L 195.886719 133.492188 L 195.886719 124.835938 L 204.542969 124.835938 L 204.542969 116.179688 L 213.207031 116.179688 L 213.207031 124.835938 L 221.867188 124.835938 L 221.867188 133.492188 " fill-opacity="1" fill-rule="nonzero"/><path fill="#ff5400" d="M 190.265625 133.492188 L 181.609375 133.492188 L 181.609375 142.152344 L 172.949219 142.152344 L 172.949219 133.492188 L 164.292969 133.492188 L 164.292969 124.835938 L 172.949219 124.835938 L 172.949219 116.179688 L 181.609375 116.179688 L 181.609375 124.835938 L 190.265625 124.835938 L 190.265625 133.492188 " fill-opacity="1" fill-rule="nonzero"/><path fill="#ff5400" d="M 146.953125 147.707031 C 140.492188 159.152344 128.230469 166.894531 114.148438 166.894531 C 100.15625 166.894531 87.957031 159.25 81.46875 147.921875 C 78.316406 142.417969 76.503906 136.050781 76.503906 129.246094 C 76.503906 108.457031 93.359375 91.605469 114.148438 91.605469 C 128.050781 91.605469 140.183594 99.148438 146.703125 110.363281 L 179.601562 91.417969 C 166.527344 68.839844 142.113281 53.652344 114.148438 53.652344 C 72.398438 53.652344 38.550781 87.496094 38.550781 129.246094 C 38.550781 142.945312 42.195312 155.785156 48.5625 166.867188 C 61.609375 189.5625 86.09375 204.84375 114.148438 204.84375 C 142.257812 204.84375 166.777344 189.5 179.800781 166.742188 L 146.953125 147.707031 " fill-opacity="1" fill-rule="nonzero"/><g clip-path="url(#f523e1e58b)"><path fill="#5c8dbc" d="M 218.179688 81.863281 C 218.179688 77.957031 217.335938 74.507812 215.644531 71.546875 C 213.984375 68.636719 211.5 66.195312 208.164062 64.265625 C 180.613281 48.40625 153.046875 32.597656 125.507812 16.722656 C 118.082031 12.445312 110.886719 12.601562 103.519531 16.941406 C 92.558594 23.398438 37.660156 54.796875 21.300781 64.257812 C 14.566406 68.152344 11.289062 74.109375 11.289062 81.855469 C 11.277344 113.75 11.289062 145.640625 11.277344 177.535156 C 11.277344 181.351562 12.078125 184.730469 13.695312 187.648438 C 15.359375 190.648438 17.878906 193.160156 21.292969 195.132812 C 37.652344 204.589844 92.550781 235.984375 103.515625 242.445312 C 110.890625 246.792969 118.085938 246.945312 125.511719 242.664062 C 153.050781 226.789062 180.625 210.976562 208.175781 195.125 C 211.59375 193.152344 214.109375 190.640625 215.777344 187.640625 C 217.386719 184.730469 218.191406 181.34375 218.191406 177.519531 C 218.191406 177.519531 218.191406 113.761719 218.183594 81.863281 " fill-opacity="1" fill-rule="nonzero"/></g><path fill="#1a4674" d="M 115.046875 129.382812 L 13.699219 187.648438 C 15.359375 190.648438 17.878906 193.160156 21.292969 195.132812 C 37.652344 204.589844 92.550781 235.984375 103.515625 242.445312 C 110.890625 246.792969 118.085938 246.945312 125.511719 242.660156 C 153.050781 226.785156 180.625 210.976562 208.175781 195.125 C 211.59375 193.152344 214.109375 190.636719 215.777344 187.640625 L 115.050781 129.382812 " fill-opacity="1" fill-rule="nonzero"/><path fill="#1a4674" d="M 85.03125 146.640625 C 90.925781 156.921875 102.011719 163.859375 114.730469 163.859375 C 127.53125 163.859375 138.679688 156.835938 144.546875 146.449219 L 115.046875 129.382812 L 85.03125 146.640625 " fill-opacity="1" fill-rule="nonzero"/><g clip-path="url(#9df9b2dad8)"><path fill="#1b598e" d="M 218.179688 81.863281 C 218.179688 77.957031 217.335938 74.507812 215.644531 71.546875 L 115.046875 129.382812 L 215.773438 187.640625 C 217.386719 184.730469 218.1875 181.34375 218.1875 177.519531 C 218.1875 177.519531 218.1875 113.757812 218.179688 81.863281 " fill-opacity="1" fill-rule="nonzero"/></g><path fill="#ffffff" d="M 212.640625 133.546875 L 204.773438 133.546875 L 204.773438 141.402344 L 196.894531 141.402344 L 196.894531 133.546875 L 189.027344 133.546875 L 189.027344 125.691406 L 196.894531 125.691406 L 196.894531 117.832031 L 204.773438 117.832031 L 204.773438 125.691406 L 212.640625 125.691406 L 212.640625 133.546875 " fill-opacity="1" fill-rule="nonzero"/><path fill="#ffffff" d="M 183.917969 133.546875 L 176.046875 133.546875 L 176.046875 141.402344 L 168.179688 141.402344 L 168.179688 133.546875 L 160.308594 133.546875 L 160.308594 125.691406 L 168.179688 125.691406 L 168.179688 117.832031 L 176.046875 117.832031 L 176.046875 125.691406 L 183.917969 125.691406 L 183.917969 133.546875 " fill-opacity="1" fill-rule="nonzero"/><path fill="#ffffff" d="M 144.546875 146.449219 C 138.679688 156.835938 127.53125 163.859375 114.730469 163.859375 C 102.011719 163.859375 90.925781 156.921875 85.03125 146.640625 C 82.164062 141.644531 80.515625 135.867188 80.515625 129.691406 C 80.515625 110.824219 95.835938 95.53125 114.730469 95.53125 C 127.371094 95.53125 138.394531 102.378906 144.320312 112.554688 L 174.226562 95.363281 C 162.34375 74.871094 140.152344 61.089844 114.730469 61.089844 C 76.785156 61.089844 46.019531 91.804688 46.019531 129.691406 C 46.019531 142.125 49.332031 153.777344 55.121094 163.835938 C 66.976562 184.429688 89.234375 198.300781 114.730469 198.300781 C 140.28125 198.300781 162.570312 184.375 174.40625 163.722656 L 144.546875 146.449219 " fill-opacity="1" fill-rule="nonzero"/></svg>