<svg xmlns="http://www.w3.org/2000/svg" xmlns:xlink="http://www.w3.org/1999/xlink" width="351" zoomAndPan="magnify" viewBox="0 0 263.25 263.249989" height="351" preserveAspectRatio="xMidYMid meet" version="1.0"><defs><clipPath id="ecadb39d7e"><path d="M 0 0 L 262.152344 0 L 262.152344 262.152344 L 0 262.152344 Z M 0 0 " clip-rule="nonzero"/></clipPath><clipPath id="dce4fe4aea"><path d="M 131.074219 0 C 58.683594 0 0 58.683594 0 131.074219 C 0 203.46875 58.683594 262.152344 131.074219 262.152344 C 203.46875 262.152344 262.152344 203.46875 262.152344 131.074219 C 262.152344 58.683594 203.46875 0 131.074219 0 Z M 131.074219 0 " clip-rule="nonzero"/></clipPath><clipPath id="3561cfab91"><path d="M 77 30.304688 L 180 30.304688 L 180 231.480469 L 77 231.480469 Z M 77 30.304688 " clip-rule="nonzero"/></clipPath></defs><g clip-path="url(#ecadb39d7e)"><g clip-path="url(#dce4fe4aea)"><path fill="#ffffff" d="M 0 0 L 262.152344 0 L 262.152344 262.152344 L 0 262.152344 Z M 0 0 " fill-opacity="1" fill-rule="nonzero"/><path stroke-linecap="butt" transform="matrix(0.747869, 0, 0, 0.747869, 0.0000055, -0.000000000000042511)" fill="none" stroke-linejoin="miter" d="M 175.26354 0.000000000000056843 C 78.46771 0.000000000000056843 -0.00000735423 78.467718 -0.00000735423 175.263547 C -0.00000735423 272.0646 78.46771 350.532318 175.26354 350.532318 C 272.064593 350.532318 350.532311 272.0646 350.532311 175.263547 C 350.532311 78.467718 272.064593 0.000000000000056843 175.26354 0.000000000000056843 Z M 175.26354 0.000000000000056843 " stroke="#ff5400" stroke-width="26" stroke-opacity="1" stroke-miterlimit="4"/></g></g><path fill="#4e7896" d="M 113.203125 136.992188 C 113.203125 136.992188 107.90625 140.214844 116.886719 141.136719 C 127.710938 142.519531 133.46875 142.289062 145.441406 139.988281 C 145.441406 139.988281 148.667969 142.058594 153.042969 143.671875 C 126.097656 155.195312 92.015625 142.980469 113.203125 136.992188 Z M 109.75 122.011719 C 109.75 122.011719 103.992188 126.390625 112.972656 127.3125 C 124.71875 128.464844 133.929688 128.695312 149.820312 125.46875 C 149.820312 125.46875 151.890625 127.773438 155.34375 128.925781 C 122.875 138.605469 86.488281 129.847656 109.746094 122.015625 Z M 173.308594 148.277344 C 173.308594 148.277344 177.222656 151.503906 168.933594 154.039062 C 153.503906 158.648438 104.222656 160.03125 90.402344 154.039062 C 85.566406 151.964844 94.78125 148.96875 97.773438 148.507812 C 100.765625 147.816406 102.378906 147.816406 102.378906 147.816406 C 97.082031 144.132812 67.144531 155.421875 87.179688 158.648438 C 142.21875 167.632812 187.585938 154.730469 173.308594 148.277344 Z M 115.738281 106.34375 C 115.738281 106.34375 90.636719 112.332031 106.757812 114.40625 C 113.664062 115.328125 127.253906 115.097656 139.917969 114.175781 C 150.28125 113.253906 160.644531 111.410156 160.644531 111.410156 C 160.644531 111.410156 156.960938 113.023438 154.425781 114.636719 C 128.863281 121.320312 79.8125 118.324219 93.859375 111.410156 C 105.835938 105.648438 115.738281 106.339844 115.738281 106.339844 Z M 160.644531 131.457031 C 186.4375 118.09375 174.460938 105.191406 166.171875 106.804688 C 164.097656 107.265625 163.175781 107.722656 163.175781 107.722656 C 163.175781 107.722656 163.867188 106.339844 165.480469 105.882812 C 181.832031 100.121094 194.726562 123.160156 160.183594 132.148438 C 160.183594 132.148438 160.414062 131.917969 160.644531 131.457031 Z M 118.269531 167.863281 C 143.140625 169.476562 181.136719 166.941406 182.0625 155.191406 C 182.0625 155.191406 180.21875 159.800781 161.566406 163.257812 C 140.378906 167.171875 114.128906 166.710938 98.703125 164.179688 C 98.703125 164.179688 101.925781 166.941406 118.277344 167.863281 Z M 118.269531 167.863281 " fill-opacity="1" fill-rule="nonzero"/><g clip-path="url(#3561cfab91)"><path fill="#f58219" d="M 144.980469 30.304688 C 144.980469 30.304688 159.261719 44.820312 131.394531 66.710938 C 109.058594 84.453125 126.328125 94.589844 131.394531 106.113281 C 118.269531 94.359375 108.828125 83.992188 115.273438 74.3125 C 124.71875 60.027344 150.742188 53.121094 144.984375 30.304688 Z M 137.617188 96.4375 C 144.296875 104.039062 135.773438 110.953125 135.773438 110.953125 C 135.773438 110.953125 152.816406 102.195312 144.988281 91.367188 C 137.847656 80.996094 132.320312 75.929688 162.257812 58.652344 C 162.257812 58.652344 115.050781 70.402344 137.617188 96.441406 Z M 120.574219 220.167969 L 120.574219 197.585938 C 120.574219 191.828125 117.347656 187.910156 109.289062 187.910156 C 104.683594 187.910156 100.765625 189.0625 97.3125 190.441406 L 98.464844 194.585938 C 100.992188 193.667969 104.222656 192.746094 107.675781 192.746094 C 112.050781 192.746094 114.125 194.585938 114.125 198.273438 L 114.125 201.269531 L 111.820312 201.269531 C 100.769531 201.269531 95.703125 205.417969 95.703125 212.101562 C 95.703125 217.628906 99.15625 220.855469 105.375 220.855469 C 109.289062 220.855469 112.28125 219.011719 115.046875 216.707031 L 115.507812 220.164062 L 120.574219 220.164062 Z M 114.125 212.796875 C 111.820312 214.871094 109.289062 216.023438 106.984375 216.023438 C 103.992188 216.023438 102.148438 214.179688 102.148438 210.953125 C 102.148438 207.726562 103.992188 205.421875 111.359375 205.421875 L 114.125 205.421875 Z M 142.21875 220.167969 L 134.160156 220.167969 L 124.488281 188.601562 L 131.398438 188.601562 L 137.386719 207.957031 L 138.765625 213.71875 C 141.761719 205.421875 144.0625 196.894531 144.984375 188.601562 L 151.894531 188.601562 C 150.050781 198.96875 146.828125 210.261719 142.222656 220.167969 Z M 179.527344 220.167969 L 179.527344 197.585938 C 179.527344 191.828125 176.300781 187.910156 168.242188 187.910156 C 163.636719 187.910156 159.722656 189.0625 156.265625 190.441406 L 157.1875 194.585938 C 159.953125 193.667969 163.175781 192.746094 166.628906 192.746094 C 171.007812 192.746094 173.078125 194.585938 173.078125 198.273438 L 173.078125 201.269531 L 170.777344 201.269531 C 159.722656 201.269531 154.65625 205.417969 154.65625 212.101562 C 154.65625 217.628906 157.878906 220.855469 164.097656 220.855469 C 168.242188 220.855469 171.238281 219.011719 174 216.707031 L 174.460938 220.164062 L 179.527344 220.164062 Z M 173.078125 212.796875 C 170.777344 214.871094 168.242188 216.023438 165.941406 216.023438 C 162.945312 216.023438 161.105469 214.179688 161.105469 210.953125 C 161.105469 207.726562 162.945312 205.421875 170.316406 205.421875 L 173.078125 205.421875 Z M 88.5625 225.46875 C 86.722656 228.234375 83.957031 230.308594 80.503906 231.460938 L 77.507812 227.777344 C 79.808594 226.394531 82.113281 224.320312 83.035156 222.476562 C 83.957031 220.863281 84.1875 218.558594 84.1875 213.257812 L 84.1875 177.3125 L 91.09375 177.3125 L 91.09375 212.796875 C 91.09375 219.941406 90.40625 222.707031 88.566406 225.472656 Z M 88.5625 225.46875 " fill-opacity="1" fill-rule="nonzero"/></g></svg>