<svg xmlns="http://www.w3.org/2000/svg" xmlns:xlink="http://www.w3.org/1999/xlink" width="351" zoomAndPan="magnify" viewBox="0 0 263.25 263.249989" height="351" preserveAspectRatio="xMidYMid meet" version="1.0"><defs><clipPath id="38a823c8ea"><path d="M 0 0 L 262.152344 0 L 262.152344 262.152344 L 0 262.152344 Z M 0 0 " clip-rule="nonzero"/></clipPath><clipPath id="424b7c40b1"><path d="M 131.074219 0 C 58.683594 0 0 58.683594 0 131.074219 C 0 203.46875 58.683594 262.152344 131.074219 262.152344 C 203.46875 262.152344 262.152344 203.46875 262.152344 131.074219 C 262.152344 58.683594 203.46875 0 131.074219 0 Z M 131.074219 0 " clip-rule="nonzero"/></clipPath><clipPath id="458fe72dc9"><path d="M 73 30.304688 L 176 30.304688 L 176 231.480469 L 73 231.480469 Z M 73 30.304688 " clip-rule="nonzero"/></clipPath></defs><g clip-path="url(#38a823c8ea)"><g clip-path="url(#424b7c40b1)"><path fill="#ffffff" d="M 0 0 L 262.152344 0 L 262.152344 262.152344 L 0 262.152344 Z M 0 0 " fill-opacity="1" fill-rule="nonzero"/><path stroke-linecap="butt" transform="matrix(0.747869, 0, 0, 0.747869, 0.0000055, -0.000000000000042511)" fill="none" stroke-linejoin="miter" d="M 175.26354 0.000000000000056843 C 78.46771 0.000000000000056843 -0.00000735423 78.467718 -0.00000735423 175.263547 C -0.00000735423 272.0646 78.46771 350.532318 175.26354 350.532318 C 272.064593 350.532318 350.532311 272.0646 350.532311 175.263547 C 350.532311 78.467718 272.064593 0.000000000000056843 175.26354 0.000000000000056843 Z M 175.26354 0.000000000000056843 " stroke="#006c52" stroke-width="26" stroke-opacity="1" stroke-miterlimit="4"/></g></g><path fill="#4e7896" d="M 108.777344 136.992188 C 108.777344 136.992188 103.480469 140.214844 112.460938 141.136719 C 123.285156 142.519531 129.042969 142.289062 141.015625 139.988281 C 141.015625 139.988281 144.242188 142.058594 148.617188 143.671875 C 121.671875 155.195312 87.589844 142.980469 108.777344 136.992188 Z M 105.320312 122.011719 C 105.320312 122.011719 99.566406 126.390625 108.546875 127.3125 C 120.292969 128.464844 129.503906 128.695312 145.390625 125.46875 C 145.390625 125.46875 147.464844 127.773438 150.917969 128.925781 C 118.449219 138.605469 82.0625 129.847656 105.320312 122.015625 Z M 168.882812 148.277344 C 168.882812 148.277344 172.796875 151.503906 164.507812 154.039062 C 149.078125 158.648438 99.796875 160.03125 85.976562 154.039062 C 81.140625 151.964844 90.355469 148.96875 93.347656 148.507812 C 96.339844 147.816406 97.953125 147.816406 97.953125 147.816406 C 92.65625 144.132812 62.71875 155.421875 82.753906 158.648438 C 137.792969 167.632812 183.160156 154.730469 168.882812 148.277344 Z M 111.3125 106.34375 C 111.3125 106.34375 86.210938 112.332031 102.332031 114.40625 C 109.238281 115.328125 122.824219 115.097656 135.492188 114.175781 C 145.855469 113.253906 156.21875 111.410156 156.21875 111.410156 C 156.21875 111.410156 152.535156 113.023438 150 114.636719 C 124.4375 121.320312 75.386719 118.324219 89.433594 111.410156 C 101.410156 105.648438 111.3125 106.339844 111.3125 106.339844 Z M 156.21875 131.457031 C 182.011719 118.09375 170.035156 105.191406 161.746094 106.804688 C 159.671875 107.265625 158.75 107.722656 158.75 107.722656 C 158.75 107.722656 159.441406 106.339844 161.054688 105.882812 C 177.402344 100.121094 190.300781 123.160156 155.757812 132.148438 C 155.757812 132.148438 155.988281 131.917969 156.21875 131.457031 Z M 113.84375 167.863281 C 138.714844 169.476562 176.707031 166.941406 177.636719 155.191406 C 177.636719 155.191406 175.792969 159.800781 157.140625 163.257812 C 135.953125 167.171875 109.699219 166.710938 94.273438 164.179688 C 94.273438 164.179688 97.5 166.941406 113.851562 167.863281 Z M 113.84375 167.863281 " fill-opacity="1" fill-rule="nonzero"/><g clip-path="url(#458fe72dc9)"><path fill="#f58219" d="M 140.554688 30.304688 C 140.554688 30.304688 154.832031 44.820312 126.96875 66.710938 C 104.632812 84.453125 121.902344 94.589844 126.96875 106.113281 C 113.84375 94.359375 104.398438 83.992188 110.847656 74.3125 C 120.292969 60.027344 146.316406 53.121094 140.558594 30.304688 Z M 133.191406 96.4375 C 139.871094 104.039062 131.347656 110.953125 131.347656 110.953125 C 131.347656 110.953125 148.390625 102.195312 140.558594 91.367188 C 133.421875 80.996094 127.894531 75.929688 157.832031 58.652344 C 157.832031 58.652344 110.621094 70.402344 133.191406 96.441406 Z M 116.144531 220.167969 L 116.144531 197.585938 C 116.144531 191.828125 112.921875 187.910156 104.863281 187.910156 C 100.257812 187.910156 96.339844 189.0625 92.886719 190.441406 L 94.039062 194.585938 C 96.566406 193.667969 99.796875 192.746094 103.25 192.746094 C 107.625 192.746094 109.699219 194.585938 109.699219 198.273438 L 109.699219 201.269531 L 107.394531 201.269531 C 96.34375 201.269531 91.277344 205.417969 91.277344 212.101562 C 91.277344 217.628906 94.730469 220.855469 100.949219 220.855469 C 104.863281 220.855469 107.855469 219.011719 110.621094 216.707031 L 111.082031 220.164062 L 116.148438 220.164062 Z M 109.699219 212.796875 C 107.394531 214.871094 104.863281 216.023438 102.558594 216.023438 C 99.566406 216.023438 97.722656 214.179688 97.722656 210.953125 C 97.722656 207.726562 99.566406 205.421875 106.933594 205.421875 L 109.699219 205.421875 Z M 137.792969 220.167969 L 129.734375 220.167969 L 120.0625 188.601562 L 126.972656 188.601562 L 132.957031 207.957031 L 134.339844 213.71875 C 137.335938 205.421875 139.636719 196.894531 140.558594 188.601562 L 147.46875 188.601562 C 145.625 198.96875 142.402344 210.261719 137.796875 220.167969 Z M 175.101562 220.167969 L 175.101562 197.585938 C 175.101562 191.828125 171.875 187.910156 163.816406 187.910156 C 159.210938 187.910156 155.296875 189.0625 151.839844 190.441406 L 152.761719 194.585938 C 155.527344 193.667969 158.75 192.746094 162.203125 192.746094 C 166.582031 192.746094 168.652344 194.585938 168.652344 198.273438 L 168.652344 201.269531 L 166.351562 201.269531 C 155.296875 201.269531 150.230469 205.417969 150.230469 212.101562 C 150.230469 217.628906 153.453125 220.855469 159.671875 220.855469 C 163.816406 220.855469 166.808594 219.011719 169.574219 216.707031 L 170.035156 220.164062 L 175.101562 220.164062 Z M 168.652344 212.796875 C 166.351562 214.871094 163.816406 216.023438 161.511719 216.023438 C 158.519531 216.023438 156.675781 214.179688 156.675781 210.953125 C 156.675781 207.726562 158.519531 205.421875 165.890625 205.421875 L 168.652344 205.421875 Z M 84.136719 225.46875 C 82.296875 228.234375 79.53125 230.308594 76.078125 231.460938 L 73.082031 227.777344 C 75.382812 226.394531 77.6875 224.320312 78.609375 222.476562 C 79.53125 220.863281 79.761719 218.558594 79.761719 213.257812 L 79.761719 177.3125 L 86.667969 177.3125 L 86.667969 212.796875 C 86.667969 219.941406 85.980469 222.707031 84.140625 225.472656 Z M 84.136719 225.46875 " fill-opacity="1" fill-rule="nonzero"/></g></svg>